<svg xmlns="http://www.w3.org/2000/svg" xmlns:xlink="http://www.w3.org/1999/xlink" width="60" height="60" viewBox="0 0 60 60">
  <defs>
    <clipPath id="clip-path">
      <rect id="사각형_164132" data-name="사각형 164132" width="60" height="60" transform="translate(815 2291)" fill="#fff" stroke="#707070" stroke-width="1"/>
    </clipPath>
  </defs>
  <g id="ico_mentors" transform="translate(-815 -2291)" clip-path="url(#clip-path)">
    <g id="그룹_205979" data-name="그룹 205979" transform="translate(814.999 2292.154)">
      <g id="합치기_208" data-name="합치기 208" transform="translate(0)" fill="none">
        <path d="M10.094,49.04V42.591a12.066,12.066,0,0,0-3.876-8.816A19.238,19.238,0,0,1,6.065,5.591,20.429,20.429,0,0,1,20.223,0c.14,0,.28,0,.42.007C31.2.228,40.053,8.748,40.375,19a19.107,19.107,0,0,1-6,14.577A12.492,12.492,0,0,0,30.287,42.6V49.04a9.967,9.967,0,0,1-10.095,9.807A9.97,9.97,0,0,1,10.094,49.04Z" stroke="none"/>
        <path d="M 20.19219398498535 56.34615707397461 C 24.37992286682129 56.34615707397461 27.78688430786133 53.06844711303711 27.78688430786133 49.03958511352539 L 27.78688430786133 42.59765625 C 27.78688430786133 38.60616683959961 29.51349258422852 34.76077651977539 32.64740371704102 31.77104568481445 C 36.17029190063477 28.40553665161133 38.02717208862305 23.89831733703613 37.87600326538086 19.07962608337402 C 37.74109268188477 14.77679634094238 35.87232208251953 10.67972660064697 32.61395263671875 7.543156623840332 C 31.01973342895508 6.008536815643311 29.18265342712402 4.791326522827148 27.15374374389648 3.92535662651062 C 25.05820274353027 3.030946731567383 22.8499927520752 2.553476572036743 20.59043312072754 2.506216526031494 L 20.58211326599121 2.506036520004272 C 20.4541130065918 2.502926588058472 20.33322334289551 2.499996662139893 20.22276306152344 2.499996662139893 C 15.52932357788086 2.499996662139893 11.11307334899902 4.241256713867188 7.786903381347656 7.403626441955566 C 4.377593517303467 10.64271640777588 2.500003337860107 14.97919654846191 2.500003337860107 19.61425590515137 C 2.500003337860107 24.3198070526123 4.424623489379883 28.6981258392334 7.917613506317139 31.94108581542969 C 10.88959312438965 34.69517517089844 12.59411334991455 38.57688522338867 12.59411334991455 42.59089660644531 L 12.59411334991455 49.03958511352539 C 12.59411334991455 53.06844711303711 16.00259399414062 56.34615707397461 20.19219398498535 56.34615707397461 M 20.19219398498535 58.84615707397461 C 14.62586307525635 58.84615707397461 10.09411334991455 54.4437370300293 10.09411334991455 49.03958511352539 L 10.09411334991455 42.59089660644531 C 10.09411334991455 39.27245712280273 8.684283256530762 36.0599479675293 6.218343257904053 33.77479553222656 C 2.209553480148315 30.05295753479004 3.381958094905713e-06 25.02178573608398 3.381958094905713e-06 19.61425590515137 C 3.381958094905713e-06 14.28673648834229 2.154653310775757 9.306266784667969 6.064963340759277 5.591196537017822 C 9.858673095703125 1.984306573867798 14.88564300537109 -3.370361355337081e-06 20.22276306152344 -3.370361355337081e-06 C 20.36255264282227 -3.370361355337081e-06 20.5029125213623 0.003376629669219255 20.64271354675293 0.006766629870980978 C 31.20149421691895 0.227616623044014 40.05330276489258 8.748497009277344 40.37477493286133 19.00127601623535 C 40.54852294921875 24.53951644897461 38.41764450073242 29.7160472869873 34.37433242797852 33.57872772216797 C 31.73803329467773 36.09374618530273 30.28688430786133 39.29612731933594 30.28688430786133 42.59765625 L 30.28688430786133 49.03958511352539 C 30.28688430786133 54.4437370300293 25.7585334777832 58.84615707397461 20.19219398498535 58.84615707397461 Z" stroke="none" fill="#f5f5f5"/>
      </g>
      <rect id="사각형_164014" data-name="사각형 164014" width="17.308" height="1.731" transform="translate(11.834 44.292)" fill="#fff"/>
    </g>
  </g>
</svg>
