<svg xmlns="http://www.w3.org/2000/svg" xmlns:xlink="http://www.w3.org/1999/xlink" width="60" height="60" viewBox="0 0 60 60">
  <defs>
    <clipPath id="clip-path">
      <rect id="사각형_164130" data-name="사각형 164130" width="60" height="60" transform="translate(815 2291)" fill="#fff" stroke="#707070" stroke-width="1"/>
    </clipPath>
  </defs>
  <g id="ico_aprtnership" transform="translate(-815 -2291)" clip-path="url(#clip-path)">
    <g id="그룹_205976" data-name="그룹 205976" transform="translate(815 2292.154)">
      <g id="사각형_164012" data-name="사각형 164012" fill="none" stroke="#fff" stroke-width="2.5">
        <path d="M19.9,0h0a19.9,19.9,0,0,1,19.9,19.9v19.9a0,0,0,0,1,0,0H19.9A19.9,19.9,0,0,1,0,19.9v0A19.9,19.9,0,0,1,19.9,0Z" stroke="none"/>
        <path d="M19.9,1.25h0A18.654,18.654,0,0,1,38.558,19.9V38.558a0,0,0,0,1,0,0H19.9A18.654,18.654,0,0,1,1.25,19.9v0A18.654,18.654,0,0,1,19.9,1.25Z" fill="none"/>
      </g>
      <g id="사각형_164013" data-name="사각형 164013" transform="translate(20.192 19.038)" fill="none" stroke="#fff" stroke-width="2.5">
        <path d="M0,0H19.9a19.9,19.9,0,0,1,19.9,19.9v0a19.9,19.9,0,0,1-19.9,19.9h0A19.9,19.9,0,0,1,0,19.9V0A0,0,0,0,1,0,0Z" stroke="none"/>
        <path d="M1.25,1.25H19.9A18.654,18.654,0,0,1,38.558,19.9v0A18.654,18.654,0,0,1,19.9,38.558h0A18.654,18.654,0,0,1,1.25,19.9V1.25A0,0,0,0,1,1.25,1.25Z" fill="none"/>
      </g>
    </g>
  </g>
</svg>
